<mxfile host="app.diagrams.net" agent="Mozilla/5.0 (Windows NT 10.0; Win64; x64) AppleWebKit/537.36 (KHTML, like Gecko) Chrome/126.0.0.0 Safari/537.36" version="24.7.7">
  <diagram name="第 1 页" id="Y2cfiwyhvstEtxT1_A8s">
    <mxGraphModel dx="2536" dy="927" grid="1" gridSize="10" guides="1" tooltips="1" connect="1" arrows="1" fold="1" page="1" pageScale="1" pageWidth="827" pageHeight="1169" math="0" shadow="0">
      <root>
        <mxCell id="0" />
        <mxCell id="1" parent="0" />
        <mxCell id="Os20RsgYe2a4jPq89aU4-20" value="Vehicle" style="shape=umlLifeline;perimeter=lifelinePerimeter;whiteSpace=wrap;html=1;container=0;dropTarget=0;collapsible=0;recursiveResize=0;outlineConnect=0;portConstraint=eastwest;newEdgeStyle={&quot;edgeStyle&quot;:&quot;elbowEdgeStyle&quot;,&quot;elbow&quot;:&quot;vertical&quot;,&quot;curved&quot;:0,&quot;rounded&quot;:0};" vertex="1" parent="1">
          <mxGeometry x="530" y="40" width="140" height="730" as="geometry" />
        </mxCell>
        <mxCell id="Os20RsgYe2a4jPq89aU4-52" value="" style="html=1;points=[];perimeter=orthogonalPerimeter;outlineConnect=0;targetShapes=umlLifeline;portConstraint=eastwest;newEdgeStyle={&quot;edgeStyle&quot;:&quot;elbowEdgeStyle&quot;,&quot;elbow&quot;:&quot;vertical&quot;,&quot;curved&quot;:0,&quot;rounded&quot;:0};" vertex="1" parent="Os20RsgYe2a4jPq89aU4-20">
          <mxGeometry x="63" y="470" width="10" height="158" as="geometry" />
        </mxCell>
        <mxCell id="Os20RsgYe2a4jPq89aU4-1" value="电检工具App" style="shape=umlLifeline;perimeter=lifelinePerimeter;whiteSpace=wrap;html=1;container=0;dropTarget=0;collapsible=0;recursiveResize=0;outlineConnect=0;portConstraint=eastwest;newEdgeStyle={&quot;edgeStyle&quot;:&quot;elbowEdgeStyle&quot;,&quot;elbow&quot;:&quot;vertical&quot;,&quot;curved&quot;:0,&quot;rounded&quot;:0};" vertex="1" parent="1">
          <mxGeometry x="-350" y="40" width="100" height="730" as="geometry" />
        </mxCell>
        <mxCell id="Os20RsgYe2a4jPq89aU4-3" value="" style="html=1;points=[];perimeter=orthogonalPerimeter;outlineConnect=0;targetShapes=umlLifeline;portConstraint=eastwest;newEdgeStyle={&quot;edgeStyle&quot;:&quot;elbowEdgeStyle&quot;,&quot;elbow&quot;:&quot;vertical&quot;,&quot;curved&quot;:0,&quot;rounded&quot;:0};" vertex="1" parent="Os20RsgYe2a4jPq89aU4-1">
          <mxGeometry x="45" y="410" width="10" height="170" as="geometry" />
        </mxCell>
        <mxCell id="Os20RsgYe2a4jPq89aU4-4" value="电检App-Server" style="shape=umlLifeline;perimeter=lifelinePerimeter;whiteSpace=wrap;html=1;container=0;dropTarget=0;collapsible=0;recursiveResize=0;outlineConnect=0;portConstraint=eastwest;newEdgeStyle={&quot;edgeStyle&quot;:&quot;elbowEdgeStyle&quot;,&quot;elbow&quot;:&quot;vertical&quot;,&quot;curved&quot;:0,&quot;rounded&quot;:0};" vertex="1" parent="1">
          <mxGeometry x="-160" y="40" width="100" height="730" as="geometry" />
        </mxCell>
        <mxCell id="Os20RsgYe2a4jPq89aU4-5" value="" style="html=1;points=[];perimeter=orthogonalPerimeter;outlineConnect=0;targetShapes=umlLifeline;portConstraint=eastwest;newEdgeStyle={&quot;edgeStyle&quot;:&quot;elbowEdgeStyle&quot;,&quot;elbow&quot;:&quot;vertical&quot;,&quot;curved&quot;:0,&quot;rounded&quot;:0};" vertex="1" parent="Os20RsgYe2a4jPq89aU4-4">
          <mxGeometry x="45" y="260" width="10" height="110" as="geometry" />
        </mxCell>
        <mxCell id="Os20RsgYe2a4jPq89aU4-7" value="密钥协商" style="html=1;verticalAlign=bottom;endArrow=block;edgeStyle=elbowEdgeStyle;elbow=vertical;curved=0;rounded=0;startArrow=block;startFill=1;" edge="1" parent="1">
          <mxGeometry x="0.0065" relative="1" as="geometry">
            <mxPoint x="595.5" y="172" as="sourcePoint" />
            <Array as="points" />
            <mxPoint x="366" y="172" as="targetPoint" />
            <mxPoint as="offset" />
          </mxGeometry>
        </mxCell>
        <mxCell id="Os20RsgYe2a4jPq89aU4-9" value="返回" style="html=1;verticalAlign=bottom;endArrow=open;dashed=1;endSize=8;edgeStyle=elbowEdgeStyle;elbow=vertical;curved=0;rounded=0;" edge="1" parent="1">
          <mxGeometry relative="1" as="geometry">
            <mxPoint x="110" y="391" as="targetPoint" />
            <Array as="points">
              <mxPoint x="-10" y="391" />
            </Array>
            <mxPoint x="-100" y="391" as="sourcePoint" />
          </mxGeometry>
        </mxCell>
        <mxCell id="Os20RsgYe2a4jPq89aU4-10" value="DeviceOEM-Server" style="shape=umlLifeline;perimeter=lifelinePerimeter;whiteSpace=wrap;html=1;container=0;dropTarget=0;collapsible=0;recursiveResize=0;outlineConnect=0;portConstraint=eastwest;newEdgeStyle={&quot;edgeStyle&quot;:&quot;elbowEdgeStyle&quot;,&quot;elbow&quot;:&quot;vertical&quot;,&quot;curved&quot;:0,&quot;rounded&quot;:0};" vertex="1" parent="1">
          <mxGeometry x="58" y="40" width="122" height="730" as="geometry" />
        </mxCell>
        <mxCell id="Os20RsgYe2a4jPq89aU4-15" value="返回钥匙" style="html=1;verticalAlign=bottom;endArrow=open;dashed=1;endSize=8;edgeStyle=elbowEdgeStyle;elbow=vertical;curved=0;rounded=0;" edge="1" parent="Os20RsgYe2a4jPq89aU4-10">
          <mxGeometry relative="1" as="geometry">
            <mxPoint x="75" y="585" as="targetPoint" />
            <Array as="points" />
            <mxPoint x="290" y="585" as="sourcePoint" />
          </mxGeometry>
        </mxCell>
        <mxCell id="Os20RsgYe2a4jPq89aU4-11" value="" style="html=1;points=[];perimeter=orthogonalPerimeter;outlineConnect=0;targetShapes=umlLifeline;portConstraint=eastwest;newEdgeStyle={&quot;edgeStyle&quot;:&quot;elbowEdgeStyle&quot;,&quot;elbow&quot;:&quot;vertical&quot;,&quot;curved&quot;:0,&quot;rounded&quot;:0};" vertex="1" parent="Os20RsgYe2a4jPq89aU4-10">
          <mxGeometry x="535" y="62" width="10" height="208" as="geometry" />
        </mxCell>
        <mxCell id="Os20RsgYe2a4jPq89aU4-47" value="" style="html=1;points=[];perimeter=orthogonalPerimeter;outlineConnect=0;targetShapes=umlLifeline;portConstraint=eastwest;newEdgeStyle={&quot;edgeStyle&quot;:&quot;elbowEdgeStyle&quot;,&quot;elbow&quot;:&quot;vertical&quot;,&quot;curved&quot;:0,&quot;rounded&quot;:0};" vertex="1" parent="Os20RsgYe2a4jPq89aU4-10">
          <mxGeometry x="55" y="245" width="10" height="150" as="geometry" />
        </mxCell>
        <mxCell id="Os20RsgYe2a4jPq89aU4-17" value="VehicleOEM-Server" style="shape=umlLifeline;perimeter=lifelinePerimeter;whiteSpace=wrap;html=1;container=0;dropTarget=0;collapsible=0;recursiveResize=0;outlineConnect=0;portConstraint=eastwest;newEdgeStyle={&quot;edgeStyle&quot;:&quot;elbowEdgeStyle&quot;,&quot;elbow&quot;:&quot;vertical&quot;,&quot;curved&quot;:0,&quot;rounded&quot;:0};" vertex="1" parent="1">
          <mxGeometry x="290" y="39" width="140" height="730" as="geometry" />
        </mxCell>
        <mxCell id="Os20RsgYe2a4jPq89aU4-41" value="" style="html=1;points=[];perimeter=orthogonalPerimeter;outlineConnect=0;targetShapes=umlLifeline;portConstraint=eastwest;newEdgeStyle={&quot;edgeStyle&quot;:&quot;elbowEdgeStyle&quot;,&quot;elbow&quot;:&quot;vertical&quot;,&quot;curved&quot;:0,&quot;rounded&quot;:0};" vertex="1" parent="Os20RsgYe2a4jPq89aU4-17">
          <mxGeometry x="65" y="111" width="10" height="40" as="geometry" />
        </mxCell>
        <mxCell id="Os20RsgYe2a4jPq89aU4-43" value="" style="html=1;points=[];perimeter=orthogonalPerimeter;outlineConnect=0;targetShapes=umlLifeline;portConstraint=eastwest;newEdgeStyle={&quot;edgeStyle&quot;:&quot;elbowEdgeStyle&quot;,&quot;elbow&quot;:&quot;vertical&quot;,&quot;curved&quot;:0,&quot;rounded&quot;:0};" vertex="1" parent="Os20RsgYe2a4jPq89aU4-17">
          <mxGeometry x="65" y="180" width="10" height="210" as="geometry" />
        </mxCell>
        <mxCell id="Os20RsgYe2a4jPq89aU4-24" value="保存sn、vin关系" style="html=1;align=left;spacingLeft=2;endArrow=block;rounded=0;edgeStyle=orthogonalEdgeStyle;curved=0;rounded=0;fontFamily=Helvetica;fontSize=12;fontColor=default;" edge="1" parent="1">
          <mxGeometry relative="1" as="geometry">
            <mxPoint x="-100" y="334" as="sourcePoint" />
            <Array as="points">
              <mxPoint x="-70" y="334" />
              <mxPoint x="-70" y="364" />
            </Array>
            <mxPoint x="-100" y="364" as="targetPoint" />
          </mxGeometry>
        </mxCell>
        <mxCell id="Os20RsgYe2a4jPq89aU4-28" value="" style="endArrow=classic;html=1;rounded=0;" edge="1" parent="1">
          <mxGeometry width="50" height="50" relative="1" as="geometry">
            <mxPoint x="348.5" y="311" as="sourcePoint" />
            <mxPoint x="126" y="311" as="targetPoint" />
          </mxGeometry>
        </mxCell>
        <mxCell id="Os20RsgYe2a4jPq89aU4-29" value="接口推送sn、vin关系" style="edgeLabel;html=1;align=center;verticalAlign=middle;resizable=0;points=[];" vertex="1" connectable="0" parent="Os20RsgYe2a4jPq89aU4-28">
          <mxGeometry x="-0.1703" y="2" relative="1" as="geometry">
            <mxPoint x="-11" y="-3" as="offset" />
          </mxGeometry>
        </mxCell>
        <mxCell id="Os20RsgYe2a4jPq89aU4-30" value="扫描车辆 vin" style="html=1;align=left;spacingLeft=2;endArrow=block;rounded=0;edgeStyle=orthogonalEdgeStyle;curved=0;rounded=0;fontFamily=Helvetica;fontSize=12;fontColor=default;" edge="1" parent="1">
          <mxGeometry relative="1" as="geometry">
            <mxPoint x="-295" y="467" as="sourcePoint" />
            <Array as="points">
              <mxPoint x="-265" y="467" />
              <mxPoint x="-265" y="497" />
            </Array>
            <mxPoint x="-295" y="497" as="targetPoint" />
          </mxGeometry>
        </mxCell>
        <mxCell id="Os20RsgYe2a4jPq89aU4-32" value="" style="endArrow=block;html=1;rounded=0;startArrow=block;startFill=1;endFill=1;" edge="1" parent="1" target="Os20RsgYe2a4jPq89aU4-20">
          <mxGeometry width="50" height="50" relative="1" as="geometry">
            <mxPoint x="-296" y="530" as="sourcePoint" />
            <mxPoint x="-71" y="530" as="targetPoint" />
          </mxGeometry>
        </mxCell>
        <mxCell id="Os20RsgYe2a4jPq89aU4-33" value="蓝牙通道建立，进入电检模式" style="edgeLabel;html=1;align=center;verticalAlign=middle;resizable=0;points=[];" vertex="1" connectable="0" parent="Os20RsgYe2a4jPq89aU4-32">
          <mxGeometry x="-0.1703" y="2" relative="1" as="geometry">
            <mxPoint as="offset" />
          </mxGeometry>
        </mxCell>
        <mxCell id="Os20RsgYe2a4jPq89aU4-34" value="下载分享钥匙" style="shape=umlFrame;whiteSpace=wrap;html=1;pointerEvents=0;sketch=0;strokeColor=default;align=center;verticalAlign=middle;fontFamily=Helvetica;fontSize=12;fontColor=default;fillColor=default;" vertex="1" parent="1">
          <mxGeometry x="-460" y="860" width="1230" height="379" as="geometry" />
        </mxCell>
        <mxCell id="Os20RsgYe2a4jPq89aU4-35" value="返回钥匙" style="html=1;verticalAlign=bottom;endArrow=open;dashed=1;endSize=8;edgeStyle=elbowEdgeStyle;elbow=vertical;curved=0;rounded=0;" edge="1" parent="1">
          <mxGeometry relative="1" as="geometry">
            <mxPoint x="-130" y="635" as="targetPoint" />
            <Array as="points" />
            <mxPoint x="125" y="635" as="sourcePoint" />
          </mxGeometry>
        </mxCell>
        <mxCell id="Os20RsgYe2a4jPq89aU4-36" value="" style="endArrow=classic;html=1;rounded=0;" edge="1" parent="1">
          <mxGeometry width="50" height="50" relative="1" as="geometry">
            <mxPoint x="-117.5" y="651" as="sourcePoint" />
            <mxPoint x="-300" y="651" as="targetPoint" />
          </mxGeometry>
        </mxCell>
        <mxCell id="Os20RsgYe2a4jPq89aU4-37" value="保存钥匙" style="edgeLabel;html=1;align=center;verticalAlign=middle;resizable=0;points=[];" vertex="1" connectable="0" parent="Os20RsgYe2a4jPq89aU4-36">
          <mxGeometry x="-0.1703" y="2" relative="1" as="geometry">
            <mxPoint x="-11" y="-3" as="offset" />
          </mxGeometry>
        </mxCell>
        <mxCell id="Os20RsgYe2a4jPq89aU4-38" value="" style="html=1;points=[];perimeter=orthogonalPerimeter;outlineConnect=0;targetShapes=umlLifeline;portConstraint=eastwest;newEdgeStyle={&quot;edgeStyle&quot;:&quot;elbowEdgeStyle&quot;,&quot;elbow&quot;:&quot;vertical&quot;,&quot;curved&quot;:0,&quot;rounded&quot;:0};" vertex="1" parent="1">
          <mxGeometry x="-306" y="632" width="10" height="99" as="geometry" />
        </mxCell>
        <mxCell id="Os20RsgYe2a4jPq89aU4-39" value="验证数据合法性&lt;div&gt;保存钥匙&lt;/div&gt;" style="html=1;align=left;spacingLeft=2;endArrow=block;rounded=0;edgeStyle=orthogonalEdgeStyle;curved=0;rounded=0;fontFamily=Helvetica;fontSize=12;fontColor=default;" edge="1" parent="1">
          <mxGeometry relative="1" as="geometry">
            <mxPoint x="-296" y="667" as="sourcePoint" />
            <Array as="points">
              <mxPoint x="-266" y="667" />
              <mxPoint x="-266" y="697" />
            </Array>
            <mxPoint x="-296" y="697" as="targetPoint" />
          </mxGeometry>
        </mxCell>
        <mxCell id="Os20RsgYe2a4jPq89aU4-40" value="返回签名数据" style="html=1;verticalAlign=bottom;endArrow=open;dashed=1;endSize=8;edgeStyle=elbowEdgeStyle;elbow=vertical;curved=0;rounded=0;" edge="1" parent="1">
          <mxGeometry relative="1" as="geometry">
            <mxPoint x="-121" y="721" as="targetPoint" />
            <Array as="points">
              <mxPoint x="-206" y="721" />
            </Array>
            <mxPoint x="-296" y="721" as="sourcePoint" />
          </mxGeometry>
        </mxCell>
        <mxCell id="Os20RsgYe2a4jPq89aU4-23" value="车机上电" style="html=1;align=left;spacingLeft=2;endArrow=block;rounded=0;edgeStyle=orthogonalEdgeStyle;curved=0;rounded=0;fontFamily=Helvetica;fontSize=12;fontColor=default;" edge="1" parent="1">
          <mxGeometry relative="1" as="geometry">
            <mxPoint x="605" y="119" as="sourcePoint" />
            <Array as="points">
              <mxPoint x="635" y="119" />
              <mxPoint x="635" y="149" />
            </Array>
            <mxPoint x="605" y="149" as="targetPoint" />
          </mxGeometry>
        </mxCell>
        <mxCell id="Os20RsgYe2a4jPq89aU4-42" value="读取车架号VIN" style="html=1;align=left;spacingLeft=2;endArrow=block;rounded=0;edgeStyle=orthogonalEdgeStyle;curved=0;rounded=0;fontFamily=Helvetica;fontSize=12;fontColor=default;" edge="1" parent="1">
          <mxGeometry relative="1" as="geometry">
            <mxPoint x="605" y="191" as="sourcePoint" />
            <Array as="points">
              <mxPoint x="635" y="191" />
              <mxPoint x="635" y="221" />
            </Array>
            <mxPoint x="605" y="221" as="targetPoint" />
          </mxGeometry>
        </mxCell>
        <mxCell id="Os20RsgYe2a4jPq89aU4-44" value="" style="endArrow=classic;html=1;rounded=0;" edge="1" parent="1">
          <mxGeometry width="50" height="50" relative="1" as="geometry">
            <mxPoint x="594.5" y="238" as="sourcePoint" />
            <mxPoint x="365" y="238" as="targetPoint" />
          </mxGeometry>
        </mxCell>
        <mxCell id="Os20RsgYe2a4jPq89aU4-45" value="上报sn、vin关系" style="edgeLabel;html=1;align=center;verticalAlign=middle;resizable=0;points=[];" vertex="1" connectable="0" parent="Os20RsgYe2a4jPq89aU4-44">
          <mxGeometry x="-0.1703" y="2" relative="1" as="geometry">
            <mxPoint x="-11" y="-3" as="offset" />
          </mxGeometry>
        </mxCell>
        <mxCell id="Os20RsgYe2a4jPq89aU4-46" value="保存sn、vin关系" style="html=1;align=left;spacingLeft=2;endArrow=block;rounded=0;edgeStyle=orthogonalEdgeStyle;curved=0;rounded=0;fontFamily=Helvetica;fontSize=12;fontColor=default;" edge="1" parent="1">
          <mxGeometry relative="1" as="geometry">
            <mxPoint x="367" y="258" as="sourcePoint" />
            <Array as="points">
              <mxPoint x="397" y="258" />
              <mxPoint x="397" y="288" />
            </Array>
            <mxPoint x="367" y="288" as="targetPoint" />
          </mxGeometry>
        </mxCell>
        <mxCell id="Os20RsgYe2a4jPq89aU4-48" value="" style="endArrow=classic;html=1;rounded=0;" edge="1" parent="1">
          <mxGeometry width="50" height="50" relative="1" as="geometry">
            <mxPoint x="110" y="310" as="sourcePoint" />
            <mxPoint x="-100" y="310" as="targetPoint" />
          </mxGeometry>
        </mxCell>
        <mxCell id="Os20RsgYe2a4jPq89aU4-49" value="接口推送sn、vin关系" style="edgeLabel;html=1;align=center;verticalAlign=middle;resizable=0;points=[];" vertex="1" connectable="0" parent="Os20RsgYe2a4jPq89aU4-48">
          <mxGeometry x="-0.1703" y="2" relative="1" as="geometry">
            <mxPoint x="-11" y="-3" as="offset" />
          </mxGeometry>
        </mxCell>
        <mxCell id="Os20RsgYe2a4jPq89aU4-50" value="返回" style="html=1;verticalAlign=bottom;endArrow=open;dashed=1;endSize=8;edgeStyle=elbowEdgeStyle;elbow=vertical;curved=0;rounded=0;" edge="1" parent="1">
          <mxGeometry relative="1" as="geometry">
            <mxPoint x="350" y="405" as="targetPoint" />
            <Array as="points">
              <mxPoint x="218" y="404.5" />
            </Array>
            <mxPoint x="128" y="404.5" as="sourcePoint" />
          </mxGeometry>
        </mxCell>
        <mxCell id="Os20RsgYe2a4jPq89aU4-51" value="返回" style="html=1;verticalAlign=bottom;endArrow=open;dashed=1;endSize=8;edgeStyle=elbowEdgeStyle;elbow=vertical;curved=0;rounded=0;" edge="1" parent="1">
          <mxGeometry relative="1" as="geometry">
            <mxPoint x="590" y="300" as="targetPoint" />
            <Array as="points">
              <mxPoint x="456" y="300" />
            </Array>
            <mxPoint x="366" y="300" as="sourcePoint" />
          </mxGeometry>
        </mxCell>
        <mxCell id="Os20RsgYe2a4jPq89aU4-13" value="" style="endArrow=classic;html=1;rounded=0;" edge="1" parent="1" target="Os20RsgYe2a4jPq89aU4-20">
          <mxGeometry width="50" height="50" relative="1" as="geometry">
            <mxPoint x="-290" y="580" as="sourcePoint" />
            <mxPoint x="-80" y="580" as="targetPoint" />
          </mxGeometry>
        </mxCell>
        <mxCell id="Os20RsgYe2a4jPq89aU4-14" value="电检指令：开始电检" style="edgeLabel;html=1;align=center;verticalAlign=middle;resizable=0;points=[];" vertex="1" connectable="0" parent="Os20RsgYe2a4jPq89aU4-13">
          <mxGeometry x="-0.1703" y="2" relative="1" as="geometry">
            <mxPoint as="offset" />
          </mxGeometry>
        </mxCell>
        <mxCell id="Os20RsgYe2a4jPq89aU4-16" value="开始电检" style="html=1;align=left;spacingLeft=2;endArrow=block;rounded=0;edgeStyle=orthogonalEdgeStyle;curved=0;rounded=0;fontFamily=Helvetica;fontSize=12;fontColor=default;" edge="1" parent="1">
          <mxGeometry relative="1" as="geometry">
            <mxPoint x="603" y="600" as="sourcePoint" />
            <Array as="points">
              <mxPoint x="633" y="600" />
              <mxPoint x="633" y="630" />
            </Array>
            <mxPoint x="603" y="630" as="targetPoint" />
          </mxGeometry>
        </mxCell>
      </root>
    </mxGraphModel>
  </diagram>
</mxfile>
